<?xml version="1.0" encoding="utf-8"?>
<!-- Generator: Adobe Illustrator 26.0.1, SVG Export Plug-In . SVG Version: 6.00 Build 0)  -->
<svg version="1.1" xmlns="http://www.w3.org/2000/svg" xmlns:xlink="http://www.w3.org/1999/xlink" x="0px" y="0px"
	 viewBox="0 0 321.25 73.44" style="enable-background:new 0 0 321.25 73.44;" xml:space="preserve">
<style type="text/css">
	.st0{display:none;fill:#CB963F;}
	.st1{font-family:'Nexa-Black-Italic';}
	.st2{font-size:21.2298px;}
	.st3{display:none;}
	.st4{display:inline;fill:#CB963F;}
	.st5{display:inline;}
	.st6{fill:#1B191C;}
	.st7{fill:#CB963F;}
	.st8{font-size:19px;}
</style>
<g id="cz">
	<text transform="matrix(1 0 0 1 62.6807 65.0356)" class="st0 st1 st2">Šachy</text>
	<text transform="matrix(1 0 0 1 62.6807 65.0356)" class="st0 st1 st2">Šipky</text>
	<text transform="matrix(1 0 0 1 62.6807 65.0356)" class="st0 st1 st2">malování</text>
	<text transform="matrix(1 0 0 1 62.6807 65.0356)" class="st0 st1 st2">puzzle</text>
	<text transform="matrix(1 0 0 1 62.6807 65.0356)" class="st0 st1 st2">hry</text>
	<text transform="matrix(1 0 0 1 62.6807 65.0356)" class="st0 st1 st2">hobby</text>
	<text transform="matrix(1 0 0 1 62.6807 65.0356)" class="st0 st1 st2">vánoce</text>
	<g id="Vrstva_1">
		<g class="st3">
			<path class="st4" d="M48.39,26.62L26.08,4.29l0,0l0,0v0L3.74,26.62h0l22.33,22.32L48.39,26.62L48.39,26.62L48.39,26.62z
				 M26.07,9.86l0,16.75H9.32L26.07,9.86z M26.08,43.37L26.08,43.37l0-16.75l16.75,0L26.08,43.37z"/>
			<g class="st5">
				<path class="st6" d="M86.35,12.27v3.4l-10.3,15.01h10.79v8.66H62.68v-3.12l10.79-15.94h-9.74v-8H86.35z"/>
				<path class="st6" d="M111.04,12.27h9.48v27.07h-9.31l-0.44-2.9c-2.3,2.62-5.91,3.55-8.92,3.39
					c-7.95-0.48-12.39-6.13-12.39-14.02c0-7.99,5.27-14.12,13.15-14.12c3.84,0,6.53,1.31,7.95,3.5L111.04,12.27z M99.49,25.8
					c0,3.78,2.4,5.92,5.42,5.92c3.4,0,5.59-2.74,5.59-5.92c0-3.62-2.04-5.97-5.59-5.97C101.9,19.83,99.49,22.03,99.49,25.8z"/>
				<path class="st6" d="M144.69,39.34V24.38c0-3.34-1.92-4.49-3.79-4.49c-2.41,0-4.66,1.64-4.66,5.21v14.24h-9.97V12.27h8.94
					l0.44,2.96c2.29-2.68,5.69-3.67,8.53-3.62c5.71,0.06,10.58,3.07,10.58,12.71v15.02H144.69z"/>
				<path class="st6" d="M180.3,12.27h9.47v27.07h-9.31l-0.44-2.9c-2.31,2.62-5.93,3.55-8.94,3.39
					c-7.93-0.48-12.37-6.13-12.37-14.02c0-7.99,5.25-14.12,13.15-14.12c3.84,0,6.51,1.31,7.95,3.5L180.3,12.27z M168.74,25.8
					c0,3.78,2.42,5.92,5.44,5.92c3.38,0,5.58-2.74,5.58-5.92c0-3.62-2.03-5.97-5.58-5.97C171.16,19.83,168.74,22.03,168.74,25.8z"/>
				<path class="st6" d="M205.62,50.62h-10.08V12.27h8.98l0.44,2.91c2.29-2.63,5.91-3.57,8.93-3.4c7.95,0.49,12.38,5.48,12.38,14.02
					c0,8.28-5.26,14.14-13.14,14.14c-3.45,0-6.03-1.1-7.5-2.91V50.62z M216.24,25.8c0-3.77-2.4-5.91-5.42-5.91
					c-3.4,0-5.42,2.79-5.42,5.65c0,3.28,1.85,6.24,5.42,6.24C213.83,31.78,216.24,29.58,216.24,25.8z"/>
				<path class="st6" d="M260,25.85c0,9.86-7.83,14.14-15.44,14.14c-7.78,0-15.44-4.28-15.44-14.14c0-10.01,7.61-14.18,15.44-14.18
					C252.56,11.68,260,16,260,25.85z M250.15,25.85c0-3.11-2.03-5.91-5.59-5.91c-3.56,0-5.59,2.79-5.59,5.91
					c0,3.13,2.02,5.87,5.59,5.87C247.95,31.72,250.15,29.15,250.15,25.85z"/>
			</g>
		</g>
		<g>
			<path class="st7" d="M48.44,26.89L26.11,4.54l0,0l0,0v0L3.74,26.89h0L26.1,49.24L48.44,26.89L48.44,26.89L48.44,26.89z
				 M26.1,10.12l0,16.77H9.32L26.1,10.12z M26.1,43.67L26.1,43.67l0-16.78l16.78,0L26.1,43.67z"/>
			<g>
				<path class="st6" d="M86.45,12.53v3.4L76.14,30.96h10.8v8.67H62.76V36.5l10.8-15.96H63.8v-8.01H86.45z"/>
				<path class="st6" d="M111.17,12.53h9.49v27.09h-9.32l-0.44-2.91c-2.31,2.63-5.91,3.56-8.93,3.4
					c-7.96-0.49-12.41-6.14-12.41-14.04c0-8.01,5.28-14.15,13.16-14.15c3.84,0,6.53,1.32,7.96,3.51L111.17,12.53z M99.62,26.08
					c0,3.78,2.41,5.92,5.42,5.92c3.41,0,5.6-2.75,5.6-5.92c0-3.62-2.04-5.98-5.6-5.98C102.02,20.09,99.62,22.29,99.62,26.08z"/>
				<path class="st6" d="M144.87,39.62V24.65c0-3.35-1.92-4.5-3.8-4.5c-2.41,0-4.66,1.64-4.66,5.21v14.26h-9.98V12.53h8.95
					l0.44,2.96c2.29-2.69,5.7-3.68,8.54-3.62c5.72,0.05,10.59,3.07,10.59,12.72v15.03H144.87z"/>
				<path class="st6" d="M180.52,12.53h9.49v27.09h-9.32l-0.44-2.91c-2.31,2.63-5.93,3.56-8.95,3.4
					c-7.94-0.49-12.38-6.14-12.38-14.04c0-8.01,5.26-14.15,13.16-14.15c3.84,0,6.52,1.32,7.96,3.51L180.52,12.53z M168.95,26.08
					c0,3.78,2.42,5.92,5.45,5.92c3.39,0,5.59-2.75,5.59-5.92c0-3.62-2.03-5.98-5.59-5.98C171.37,20.09,168.95,22.29,168.95,26.08z"
					/>
				<path class="st6" d="M205.87,50.92h-10.09V12.53h8.99l0.44,2.91c2.29-2.63,5.92-3.56,8.94-3.4c7.96,0.49,12.4,5.48,12.4,14.04
					c0,8.28-5.27,14.15-13.16,14.15c-3.46,0-6.03-1.1-7.51-2.91V50.92z M216.51,26.08c0-3.79-2.41-5.92-5.42-5.92
					c-3.41,0-5.43,2.8-5.43,5.64c0,3.3,1.85,6.25,5.43,6.25C214.1,32.05,216.51,29.86,216.51,26.08z"/>
				<path class="st6" d="M260.32,26.13c0,9.88-7.84,14.15-15.46,14.15c-7.79,0-15.46-4.28-15.46-14.15c0-10.04,7.62-14.2,15.46-14.2
					C252.88,11.92,260.32,16.26,260.32,26.13z M250.46,26.13c0-3.13-2.03-5.92-5.6-5.92c-3.57,0-5.59,2.8-5.59,5.92
					c0,3.13,2.03,5.87,5.59,5.87C248.26,32,250.46,29.42,250.46,26.13z"/>
				<path class="st7" d="M266.99,32.03c5.89,0,5.83,7.94,0,7.94C261.25,39.97,261.16,32.03,266.99,32.03z"/>
				<path class="st7" d="M294.96,36.37c-2.59,2.33-5.7,3.69-8.95,3.69c-6.32,0-12.29-3.12-12.29-11.24c0-7.9,6.06-11.36,12.16-11.36
					c3.11,0,6.24,1.09,8.51,3.37l-4.3,4.65c-1.05-1.1-2.27-1.58-3.73-1.58c-3.07,0-4.74,2.24-4.74,4.96c0,2.37,1.63,4.47,4.7,4.47
					c1.49,0,2.94-0.61,4.04-1.8L294.96,36.37z"/>
				<path class="st7" d="M315.6,17.94v2.72l-8.25,12.02H316v6.93h-19.35v-2.5l8.65-12.76h-7.81v-6.41H315.6z"/>
			</g>
		</g>
	</g>
</g>
<g id="sk">
	<text transform="matrix(1 0 0 1 62.6807 65.0356)" class="st0 st1 st2">Šach</text>
	<text transform="matrix(1 0 0 1 62.6807 65.0356)" class="st0 st1 st2">Šípky</text>
	<text transform="matrix(1 0 0 1 62.6807 65.0356)" class="st0 st1 st8">maľovanie</text>
	<text transform="matrix(1 0 0 1 62.6807 65.0356)" class="st0 st1 st2">puzzle</text>
	<text transform="matrix(1 0 0 1 62.6807 65.0356)" class="st0 st1 st2">hry</text>
	<text transform="matrix(1 0 0 1 62.6807 65.0356)" class="st0 st1 st2">hobby</text>
	<text transform="matrix(1 0 0 1 62.6807 65.0356)" class="st0 st1 st2">vianoce</text>
	<g class="st3">
		<path class="st4" d="M48.44,26.89L26.11,4.54l0,0l0,0v0L3.74,26.89h0L26.1,49.24L48.44,26.89L48.44,26.89L48.44,26.89z
			 M26.1,10.12l0,16.77H9.32L26.1,10.12z M26.1,43.67L26.1,43.67l0-16.78l16.78,0L26.1,43.67z"/>
		<g class="st5">
			<path class="st6" d="M86.45,12.53v3.4L76.14,30.96h10.8v8.67H62.76V36.5l10.8-15.96H63.8v-8.01H86.45z"/>
			<path class="st6" d="M111.17,12.53h9.49v27.09h-9.32l-0.44-2.91c-2.31,2.63-5.91,3.56-8.93,3.4
				c-7.96-0.49-12.41-6.14-12.41-14.04c0-8.01,5.28-14.15,13.16-14.15c3.84,0,6.53,1.32,7.96,3.51L111.17,12.53z M99.62,26.08
				c0,3.78,2.41,5.92,5.42,5.92c3.41,0,5.6-2.75,5.6-5.92c0-3.62-2.04-5.98-5.6-5.98C102.02,20.09,99.62,22.29,99.62,26.08z"/>
			<path class="st6" d="M144.87,39.62V24.65c0-3.35-1.92-4.5-3.8-4.5c-2.41,0-4.66,1.64-4.66,5.21v14.26h-9.98V12.53h8.95l0.44,2.96
				c2.29-2.69,5.7-3.68,8.54-3.62c5.72,0.05,10.59,3.07,10.59,12.72v15.03H144.87z"/>
			<path class="st6" d="M180.52,12.53h9.49v27.09h-9.32l-0.44-2.91c-2.31,2.63-5.93,3.56-8.95,3.4
				c-7.94-0.49-12.38-6.14-12.38-14.04c0-8.01,5.26-14.15,13.16-14.15c3.84,0,6.52,1.32,7.96,3.51L180.52,12.53z M168.95,26.08
				c0,3.78,2.42,5.92,5.45,5.92c3.39,0,5.59-2.75,5.59-5.92c0-3.62-2.03-5.98-5.59-5.98C171.37,20.09,168.95,22.29,168.95,26.08z"/>
			<path class="st6" d="M205.87,50.92h-10.09V12.53h8.99l0.44,2.91c2.29-2.63,5.92-3.56,8.94-3.4c7.96,0.49,12.4,5.48,12.4,14.04
				c0,8.28-5.27,14.15-13.16,14.15c-3.46,0-6.03-1.1-7.51-2.91V50.92z M216.51,26.08c0-3.79-2.41-5.92-5.42-5.92
				c-3.41,0-5.43,2.8-5.43,5.64c0,3.3,1.85,6.25,5.43,6.25C214.1,32.05,216.51,29.86,216.51,26.08z"/>
			<path class="st6" d="M260.32,26.13c0,9.88-7.84,14.15-15.46,14.15c-7.79,0-15.46-4.28-15.46-14.15c0-10.04,7.62-14.2,15.46-14.2
				C252.88,11.92,260.32,16.26,260.32,26.13z M250.46,26.13c0-3.13-2.03-5.92-5.6-5.92c-3.57,0-5.59,2.8-5.59,5.92
				c0,3.13,2.03,5.87,5.59,5.87C248.26,32,250.46,29.42,250.46,26.13z"/>
		</g>
	</g>
	<g class="st3">
		<path class="st4" d="M266.94,40.04c-1.23,0-2.28-0.38-3.08-1.14c-1.6-1.52-1.6-4.22,0-5.74c0.8-0.76,1.86-1.14,3.08-1.14
			c1.22,0,2.28,0.38,3.08,1.14c1.6,1.52,1.6,4.22,0,5.74C269.22,39.66,268.16,40.04,266.94,40.04z"/>
		<path class="st4" d="M273.61,37.55l2.66-5.19c2.2,1.18,4.73,1.77,7.6,1.77c1.31,0,1.98-0.34,1.98-1.01s-0.89-1.06-2.62-1.14
			c-5.24-0.21-8.74-2.87-8.74-6.8c0-4.27,3.67-7.01,9.63-7.01c3.34,0,6.21,0.72,8.57,2.15l-2.83,5.03
			c-1.48-0.76-3.29-1.14-5.45-1.14c-1.61,0-2.41,0.34-2.41,1.06c0,0.55,0.68,0.89,2.07,0.97c5.87,0.34,9.33,2.7,9.33,6.88
			c0,4.43-3.67,7.1-10.14,7.1C279.48,40.21,276.27,39.33,273.61,37.55z"/>
		<path class="st4" d="M318.85,39.62h-9.29l-5.32-7.56v7.56h-7.6V10.06h7.6v15.97l4.86-7.26h8.57l-6.84,9.8L318.85,39.62z"/>
	</g>
</g>
</svg>
